HIERARCHY
ROOT Hips
{
	OFFSET 47.603298 5.307632 49.449699
	CHANNELS 6 Xposition Yposition Zposition Xrotation Yrotation Zrotation
	JOINT spine
	{
		OFFSET 0.000000 -0.359108 6.244801
		CHANNELS 3 Xrotation Yrotation Zrotation
		JOINT spine1
		{
			OFFSET 0.000000 -0.000001 9.069408
			CHANNELS 3 Xrotation Yrotation Zrotation
			JOINT spine2
			{
				OFFSET 0.000000 -0.000001 8.690140
				CHANNELS 3 Xrotation Yrotation Zrotation
				JOINT Neck
				{
					OFFSET 0.000000 -1.063724 22.311195
					CHANNELS 3 Xrotation Yrotation Zrotation
					JOINT Head
					{
						OFFSET 0.000000 -0.000001 6.740807
						CHANNELS 3 Xrotation Yrotation Zrotation
						End Site
						{
							OFFSET 0.000000 5.380968 16.316498
						}
					}
				}
				JOINT RightShoulder
				{
					OFFSET -3.659161 0.509512 9.384682
					CHANNELS 3 Xrotation Yrotation Zrotation
					JOINT RightArm
					{
						OFFSET 0.000000 -0.000002 12.308899
						CHANNELS 3 Xrotation Yrotation Zrotation
						JOINT RightArmRoll
						{
							OFFSET 0.000000 -0.000001 6.213753
							CHANNELS 3 Xrotation Yrotation Zrotation
							JOINT RightForeArm
							{
								OFFSET 0.000000 -0.000003 18.098503
								CHANNELS 3 Xrotation Yrotation Zrotation
								JOINT RightForeArmRoll
								{
									OFFSET 0.000000 -0.000001 6.972801
									CHANNELS 3 Xrotation Yrotation Zrotation
									JOINT RightHand
									{
										OFFSET 0.000000 -0.000002 13.992897
										CHANNELS 3 Xrotation Yrotation Zrotation
										End Site
										{
											OFFSET 0.000000 0.000000 0.100006
										}
									}
								}
							}
						}
					}
				}
				JOINT LeftShoulder
				{
					OFFSET 3.659161 0.509512 9.384682
					CHANNELS 3 Xrotation Yrotation Zrotation
					JOINT LeftArm
					{
						OFFSET 0.000000 -0.000002 12.308899
						CHANNELS 3 Xrotation Yrotation Zrotation
						JOINT LeftArmRoll
						{
							OFFSET 0.000000 -0.000001 6.213753
							CHANNELS 3 Xrotation Yrotation Zrotation
							JOINT LeftForeArm
							{
								OFFSET 0.000000 -0.000003 18.098503
								CHANNELS 3 Xrotation Yrotation Zrotation
								JOINT LeftForeArmRoll
								{
									OFFSET 0.000000 -0.000001 6.972794
									CHANNELS 3 Xrotation Yrotation Zrotation
									JOINT LeftHand
									{
										OFFSET 0.000000 -0.000002 13.992905
										CHANNELS 3 Xrotation Yrotation Zrotation
										End Site
										{
											OFFSET 0.000000 0.000000 0.100006
										}
									}
								}
							}
						}
					}
				}
			}
		}
	}
	JOINT RightUpLeg
	{
		OFFSET -5.535160 0.851454 -1.014999
		CHANNELS 3 Xrotation Yrotation Zrotation
		JOINT RightUpLegRoll
		{
			OFFSET 0.000000 -0.000002 16.407501
			CHANNELS 3 Xrotation Yrotation Zrotation
			JOINT RightLeg
			{
				OFFSET 0.000000 0.000003 -20.318100
				CHANNELS 3 Xrotation Yrotation Zrotation
				JOINT RightLegRoll
				{
					OFFSET 0.000000 -0.000003 20.384598
					CHANNELS 3 Xrotation Yrotation Zrotation
					JOINT RightFoot
					{
						OFFSET 0.000000 -0.000003 16.966805
						CHANNELS 3 Xrotation Yrotation Zrotation
						JOINT RightToeBase
						{
							OFFSET 0.000000 -0.000002 14.183403
							CHANNELS 3 Xrotation Yrotation Zrotation
							End Site
							{
								OFFSET 0.006012 0.791744 6.868896
							}
						}
					}
				}
			}
		}
	}
	JOINT LeftUpLeg
	{
		OFFSET 5.535160 0.851454 -1.014999
		CHANNELS 3 Xrotation Yrotation Zrotation
		JOINT LeftUpLegRoll
		{
			OFFSET 0.000000 -0.000002 16.407600
			CHANNELS 3 Xrotation Yrotation Zrotation
			JOINT LeftLeg
			{
				OFFSET 0.000000 -0.000003 20.318100
				CHANNELS 3 Xrotation Yrotation Zrotation
				JOINT LeftLegRoll
				{
					OFFSET 0.000000 -0.000003 20.573097
					CHANNELS 3 Xrotation Yrotation Zrotation
					JOINT LeftFoot
					{
						OFFSET 0.000000 -0.000003 16.778297
						CHANNELS 3 Xrotation Yrotation Zrotation
						JOINT LeftToeBase
						{
							OFFSET 0.000000 -0.000002 14.183395
							CHANNELS 3 Xrotation Yrotation Zrotation
							End Site
							{
								OFFSET -0.026943 0.791745 6.868896
							}
						}
					}
				}
			}
		}
	}
}
MOTION
Frames: 10
Frame Time: 0.041667
47.208500 -1.569737 58.965801 40.466217 1.815074 -2.381449 0.759652 -0.577606 0.003367 5.522015 -1.154061 0.021277 7.167243 -1.153727 0.035103 0.052628 16.766892 0.441296 0.439319 -8.783475 -2.366667 -8.357869 -35.130378 -7.878873 -29.430312 -141.909761 -67.660264 -0.000000 -0.000001 -0.000001 75.065562 -9.814745 3.116274 -0.000005 0.000008 -2.999999 -5.000154 -7.998708 0.000168 -5.374910 67.011669 6.987493 -98.070076 121.767889 135.756963 -0.000004 0.000000 -0.000002 73.927837 12.209305 -4.228625 -0.000002 -0.000002 3.000001 -5.000294 7.999528 -0.000077 -109.428469 -188.888144 2.149316 179.999991 -0.000005 -0.673001 97.258909 -0.475880 -1.246815 0.000001 -0.000001 1.703869 77.402169 7.362498 -0.129806 26.785692 -7.347958 0.170407 -110.692607 178.765694 4.544044 -0.000004 -0.000004 -0.779114 -93.304202 -2.538819 -1.797248 -0.000002 0.000002 -2.714491 78.363546 -6.406659 -2.966902 28.920425 7.068704 -4.987417 
47.219402 -1.528235 58.913399 40.402546 1.803221 -2.364823 0.759388 -0.575637 0.004600 5.521484 -1.149653 0.024230 7.166706 -1.149283 0.038002 0.008933 16.743799 0.407343 0.441979 -8.693564 -2.410755 -8.401176 -35.205097 -7.945402 -29.427146 -141.863972 -67.676103 0.000000 -0.000003 -0.000001 75.126262 -9.778896 3.089386 -0.000002 0.000009 -2.999998 -5.000159 -7.998703 0.000168 -5.247806 67.022331 6.844685 -98.113680 121.704709 135.759695 -0.000001 -0.000002 -0.000001 73.970723 12.138786 -4.170645 -0.000004 -0.000003 3.000002 -5.000296 7.999527 -0.000082 -109.452648 -188.862954 2.152809 179.999991 -0.000004 -0.673998 97.222388 -0.462515 -1.245801 -0.000001 -0.000001 1.703179 77.373155 7.361347 -0.121645 26.760635 -7.347958 0.167163 -110.718391 178.773303 4.505493 -0.000005 -0.000004 -0.780702 -93.352300 -2.540287 -1.798358 -0.000001 0.000002 -2.712310 78.326642 -6.408199 -2.963444 28.917966 7.069505 -4.985617 
47.219799 -1.483056 58.858398 40.337656 1.790609 -2.347633 0.759118 -0.573611 0.005941 5.520995 -1.145085 0.027449 7.166216 -1.144670 0.041167 -0.033058 16.719396 0.372971 0.443393 -8.601816 -2.454933 -8.445605 -35.281315 -8.013628 -29.424544 -141.816365 -67.692632 -0.000001 -0.000003 -0.000002 75.186149 -9.742946 3.062503 -0.000000 0.000009 -2.999999 -5.000159 -7.998704 0.000167 -5.116718 67.032522 6.697408 -98.155925 121.640697 135.760118 0.000000 -0.000001 -0.000000 74.012510 12.068439 -4.112963 -0.000002 -0.000002 3.000000 -5.000291 7.999528 -0.000079 -109.475174 -188.838625 2.154203 179.999991 -0.000005 -0.674995 97.187677 -0.447240 -1.244906 -0.000002 -0.000001 1.702300 77.342760 7.359380 -0.110384 26.734972 -7.347964 0.163828 -110.742672 178.781130 4.466214 -0.000007 -0.000004 -0.782303 -93.398951 -2.541691 -1.801413 0.000000 0.000002 -2.709989 78.288161 -6.409753 -2.959882 28.915688 7.070293 -4.984124 
47.221901 -1.474138 58.727699 40.271550 1.777312 -2.330171 0.758896 -0.571553 0.007374 5.520593 -1.140427 0.030878 7.165817 -1.139978 0.044540 -0.074120 16.695084 0.338777 0.444207 -8.509278 -2.498830 -8.490906 -35.358045 -8.083075 -29.422461 -141.767926 -67.709858 0.000000 -0.000002 -0.000000 75.244888 -9.707073 3.035873 -0.000003 0.000007 -3.000000 -5.000158 -7.998708 0.000167 -4.985604 67.041995 6.550038 -98.193955 121.577026 135.755597 -0.000001 -0.000002 0.000002 74.052945 11.998907 -4.055862 -0.000000 -0.000005 2.999999 -5.000288 7.999530 -0.000076 -109.496094 -188.815088 2.153805 179.999991 -0.000005 -0.676006 97.154120 -0.430539 -1.242080 -0.000002 -0.000001 1.701291 77.311437 7.356763 -0.096937 26.709108 -7.347966 0.160470 -110.765362 178.789163 4.426165 -0.000004 -0.000004 -0.783924 -93.444487 -2.543139 -1.803481 -0.000003 0.000002 -2.707610 78.248580 -6.411371 -2.956288 28.913417 7.071079 -4.982800 
47.222599 -1.448058 58.700603 40.204129 1.763390 -2.312711 0.758759 -0.569491 0.008880 5.520374 -1.135769 0.034459 7.165598 -1.135276 0.048066 -0.115037 16.672067 0.305365 0.445140 -8.417030 -2.542063 -8.536814 -35.434414 -8.153304 -29.420029 -141.720333 -67.726469 0.000001 -0.000002 -0.000001 75.301920 -9.671552 3.009305 -0.000002 0.000007 -3.000003 -5.000154 -7.998706 0.000168 -4.858244 67.050150 6.406841 -98.224814 121.514448 135.743412 0.000002 0.000000 -0.000001 74.091911 11.930750 -3.999860 -0.000001 -0.000003 3.000000 -5.000293 7.999528 -0.000078 -109.515724 -188.792371 2.151932 179.999991 -0.000005 -0.677003 97.120912 -0.412627 -1.238319 -0.000002 -0.000001 1.700220 77.279629 7.353650 -0.081916 26.683445 -7.347962 0.157132 -110.786556 178.797373 4.386256 -0.000003 -0.000004 -0.785571 -93.489621 -2.544855 -1.804535 -0.000002 0.000002 -2.705270 78.208699 -6.412993 -2.952512 28.911357 7.071853 -4.981581 
47.226299 -1.375520 58.705399 40.135605 1.748898 -2.295535 0.758739 -0.567451 0.010440 5.520418 -1.131201 0.038139 7.165634 -1.130662 0.051690 -0.156580 16.651535 0.273339 0.446872 -8.326129 -2.584281 -8.583048 -35.509440 -8.223843 -29.417693 -141.673751 -67.743039 0.000002 -0.000003 0.000003 75.356897 -9.636576 2.983157 -0.000004 0.000008 -2.999999 -5.000154 -7.998705 0.000167 -4.738554 67.056557 6.272181 -98.245298 121.453987 135.720531 -0.000001 -0.000001 -0.000000 74.129109 11.864740 -3.945528 0.000002 -0.000002 3.000002 -5.000289 7.999529 -0.000078 -109.534016 -188.770378 2.148781 179.999991 -0.000005 -0.678001 97.087116 -0.393970 -1.234598 -0.000001 -0.000001 1.699160 77.247705 7.350295 -0.065913 26.658385 -7.347953 0.153861 -110.806446 178.805692 4.347415 -0.000006 -0.000004 -0.787251 -93.534926 -2.546820 -1.807597 -0.000004 0.000002 -2.703040 78.169070 -6.414616 -2.948825 28.909185 7.072603 -4.980316 
47.230499 -1.377140 58.636002 40.065763 1.733907 -2.278920 0.758887 -0.565461 0.012037 5.520787 -1.126780 0.041858 7.166009 -1.126196 0.055356 -0.199523 16.634806 0.243307 0.450072 -8.237636 -2.625105 -8.629302 -35.582253 -8.294186 -29.415074 -141.629040 -67.759240 0.000002 -0.000002 -0.000001 75.409352 -9.602369 2.957463 -0.000004 0.000007 -3.000001 -5.000161 -7.998698 0.000170 -4.630399 67.060839 6.150396 -98.252340 121.396586 135.684044 0.000000 -0.000000 0.000002 74.164311 11.801417 -3.893050 -0.000004 -0.000002 3.000001 -5.000290 7.999530 -0.000079 -109.551159 -188.749122 2.145450 179.999991 -0.000005 -0.679995 97.051988 -0.375035 -1.228892 -0.000001 -0.000001 1.698160 77.216176 7.346785 -0.049757 26.634142 -7.347959 0.150698 -110.824942 178.814134 4.308554 -0.000005 -0.000004 -0.788970 -93.580907 -2.549268 -1.809693 -0.000003 0.000002 -2.701000 78.130466 -6.416175 -2.945175 28.907013 7.073337 -4.978919 
47.237099 -1.329799 58.600098 39.994818 1.718484 -2.263159 0.759254 -0.563545 0.013652 5.521581 -1.122609 0.045562 7.166794 -1.121987 0.059010 -0.244656 16.623157 0.215880 0.455451 -8.152644 -2.664192 -8.675314 -35.651877 -8.363870 -29.411529 -141.587977 -67.774123 0.000002 -0.000003 -0.000001 75.459056 -9.569121 2.932777 0.000000 0.000012 -2.999995 -5.000159 -7.998704 0.000169 -4.537643 67.062417 6.045797 -98.243044 121.343119 135.631164 0.000001 -0.000003 0.000002 74.197376 11.741475 -3.843139 -0.000002 -0.000004 3.000002 -5.000292 7.999531 -0.000077 -109.567231 -188.728509 2.143330 179.999991 -0.000005 -0.681006 97.014702 -0.356165 -1.224174 0.000000 -0.000001 1.697291 77.185434 7.343357 -0.033949 26.611310 -7.347958 0.147708 -110.842222 178.822603 4.270580 -0.000005 -0.000004 -0.790736 -93.628138 -2.552161 -1.813845 -0.000003 0.000002 -2.699240 78.093344 -6.417719 -2.941640 28.904736 7.074047 -4.977281 
47.239101 -1.309735 58.554100 39.922667 1.702694 -2.248521 0.759855 -0.561733 0.015267 5.522850 -1.118764 0.049194 7.168066 -1.118095 0.062596 -0.292733 16.617792 0.191672 0.463670 -8.072200 -2.701160 -8.720778 -35.717327 -8.432392 -29.407253 -141.550616 -67.787899 0.000003 -0.000002 -0.000001 75.505419 -9.537060 2.908727 -0.000003 0.000010 -2.999999 -5.000157 -7.998704 0.000170 -4.464182 67.060976 5.962763 -98.214487 121.294666 135.559325 -0.000002 -0.000001 0.000000 74.228092 11.685455 -3.795995 -0.000003 -0.000004 3.000001 -5.000291 7.999528 -0.000077 -109.582449 -188.708551 2.141668 179.999991 -0.000004 -0.683001 96.974466 -0.337820 -1.218423 -0.000001 -0.000001 1.696610 77.155784 7.340209 -0.019076 26.590287 -7.347947 0.144954 -110.858314 178.831114 4.234426 -0.000004 -0.000004 -0.792554 -93.677192 -2.555676 -1.818054 -0.000002 0.000002 -2.697840 78.058571 -6.419136 -2.938257 28.902362 7.074718 -4.975286 
47.247101 -1.273006 58.516193 39.849414 1.686614 -2.235301 0.760749 -0.560048 0.016864 5.524689 -1.115326 0.052698 7.169901 -1.114618 0.066058 -0.344558 16.619916 0.171305 0.475446 -7.997387 -2.735673 -8.765408 -35.777740 -8.499269 -29.402154 -141.517913 -67.800528 0.000002 -0.000002 -0.000002 75.548108 -9.506370 2.885760 -0.000000 0.000009 -2.999998 -5.000157 -7.998704 0.000167 -4.413944 67.056168 5.905670 -98.163247 121.252155 135.465095 -0.000004 -0.000001 -0.000001 74.256191 11.634061 -3.752410 -0.000000 -0.000004 2.999999 -5.000291 7.999530 -0.000080 -109.596894 -188.689249 2.141543 179.999991 -0.000004 -0.683998 96.930445 -0.320219 -1.211600 -0.000001 -0.000001 1.696191 77.127889 7.337455 -0.006074 26.571295 -7.347941 0.142446 -110.873286 178.839611 4.200029 -0.000004 -0.000004 -0.794431 -93.728480 -2.559936 -1.823329 -0.000001 0.000002 -2.696890 78.026633 -6.420501 -2.935111 28.899883 7.075342 -4.972850 
